<?xml version="1.0" encoding="utf-8"?><svg viewBox="0 0 569.29 569.55" xmlns="http://www.w3.org/2000/svg" xmlns:xlink="http://www.w3.org/1999/xlink"><style>:root>svg{display:none}:root>svg:target{display:block}</style><svg viewBox="0 0 480 480" id="accounting" xmlns="http://www.w3.org/2000/svg"><path d="M184 288c-44.184 0-80 35.816-80 80s35.816 80 80 80 80-35.816 80-80c-.047-44.164-35.836-79.953-80-80zm0 144c-35.348 0-64-28.652-64-64s28.652-64 64-64 64 28.652 64 64c-.04 35.328-28.672 63.96-64 64zm0 0"/><path d="M184 344c9.77 0 16 4.734 16 8h16c0-11.367-10.07-20.574-24-23.2V320h-16v8.8c-13.93 2.606-24 11.817-24 23.2 0 13.465 14.055 24 32 24 9.77 0 16 4.734 16 8s-6.23 8-16 8-16-4.734-16-8h-16c0 11.367 10.07 20.574 24 23.2v8.8h16v-8.8c13.93-2.606 24-11.817 24-23.2 0-13.465-14.055-24-32-24-9.77 0-16-4.734-16-8s6.23-8 16-8zm0 0"/><path d="M408 464H72V272h128c13.254 0 24-10.746 24-24V48h88v96h96v112h16V132.687L323.312 32H224v-8c0-13.254-10.746-24-24-24H24C10.746 0 0 10.746 0 24v224c0 13.254 10.746 24 24 24h32v208h368V368h-16zM328 59.312 396.688 128H328zM16 248V24a8 8 0 0 1 8-8h176a8 8 0 0 1 8 8v224a8 8 0 0 1-8 8H24a8 8 0 0 1-8-8zm0 0"/><path d="M256 200h16v16h-16zm32 0h96v16h-96zm-32-32h16v16h-16zm32 0h96v16h-96zm-32 64h16v16h-16zm32 0h96v16h-96zm-32 32h16v16h-16zm32 0h96v16h-96zM200 24H24v56h176zm-16 40H40V40h144zM64 88H48c-8.836 0-16 7.164-16 16v16c0 8.836 7.164 16 16 16h16c8.836 0 16-7.164 16-16v-16c0-8.836-7.164-16-16-16zm-16 32v-16h16v16zm72-32h-16c-8.836 0-16 7.164-16 16v16c0 8.836 7.164 16 16 16h16c8.836 0 16-7.164 16-16v-16c0-8.836-7.164-16-16-16zm-16 32v-16h16v16zm72-32h-16c-8.836 0-16 7.164-16 16v16c0 8.836 7.164 16 16 16h16c8.836 0 16-7.164 16-16v-16c0-8.836-7.164-16-16-16zm-16 32v-16h16v16zm-96 24H48c-8.836 0-16 7.164-16 16v16c0 8.836 7.164 16 16 16h16c8.836 0 16-7.164 16-16v-16c0-8.836-7.164-16-16-16zm-16 32v-16h16v16zm72-32h-16c-8.836 0-16 7.164-16 16v16c0 8.836 7.164 16 16 16h16c8.836 0 16-7.164 16-16v-16c0-8.836-7.164-16-16-16zm-16 32v-16h16v16zm72-32h-16c-8.836 0-16 7.164-16 16v16c0 8.836 7.164 16 16 16h16c8.836 0 16-7.164 16-16v-16c0-8.836-7.164-16-16-16zm-16 32v-16h16v16zm-96 24H48c-8.836 0-16 7.164-16 16v16c0 8.836 7.164 16 16 16h16c8.836 0 16-7.164 16-16v-16c0-8.836-7.164-16-16-16zm-16 32v-16h16v16zm72-32h-16c-8.836 0-16 7.164-16 16v16c0 8.836 7.164 16 16 16h16c8.836 0 16-7.164 16-16v-16c0-8.836-7.164-16-16-16zm-16 32v-16h16v16zm72-32h-16c-8.836 0-16 7.164-16 16v16c0 8.836 7.164 16 16 16h16c8.836 0 16-7.164 16-16v-16c0-8.836-7.164-16-16-16zm-16 32v-16h16v16zm312.734 23.266c-9.496-9.067-24.437-9.067-33.933 0l-137.145 137.14a8.095 8.095 0 0 0-1.601 2.313l-19.313 41.937a7.997 7.997 0 0 0 1.617 8.992 7.997 7.997 0 0 0 8.993 1.618l41.937-19.313a8.017 8.017 0 0 0 2.313-1.601l137.132-137.145c9.375-9.371 9.375-24.57 0-33.941zM325.29 414.016l-20.96 9.656 9.655-20.961 102.254-102.262 11.313 11.313zm113.598-113.602-11.313-11.309 5.602-5.601 11.312 11.312zm22.562-22.559-5.656 5.657-11.313-11.313 5.665-5.656a8.179 8.179 0 0 1 11.304 0 8.004 8.004 0 0 1 0 11.312zm0 0"/></svg><svg viewBox="0 0 24 24" id="alert-circle" xmlns="http://www.w3.org/2000/svg"><path fill-rule="evenodd" d="M12 3a9 9 0 1 0 0 18 9 9 0 0 0 0-18ZM1 12C1 5.925 5.925 1 12 1s11 4.925 11 11-4.925 11-11 11S1 18.075 1 12Zm11-5a1 1 0 0 1 1 1v4a1 1 0 1 1-2 0V8a1 1 0 0 1 1-1Zm-1 9a1 1 0 0 1 1-1h.01a1 1 0 1 1 0 2H12a1 1 0 0 1-1-1Z" clip-rule="evenodd"/></svg><svg viewBox="0 0 447.243 447.243" id="arrow" xmlns="http://www.w3.org/2000/svg"><path d="M420.361 192.229a31.967 31.967 0 0 0-5.535-.41H99.305l6.88-3.2a63.998 63.998 0 0 0 18.08-12.8l88.48-88.48c11.653-11.124 13.611-29.019 4.64-42.4-10.441-14.259-30.464-17.355-44.724-6.914a32.018 32.018 0 0 0-3.276 2.754l-160 160c-12.504 12.49-12.515 32.751-.025 45.255l.025.025 160 160c12.514 12.479 32.775 12.451 45.255-.063a32.084 32.084 0 0 0 2.745-3.137c8.971-13.381 7.013-31.276-4.64-42.4l-88.32-88.64a64.002 64.002 0 0 0-16-11.68l-9.6-4.32h314.24c16.347.607 30.689-10.812 33.76-26.88 2.829-17.445-9.019-33.88-26.464-36.71z"/></svg><svg xml:space="preserve" style="enable-background:new 0 0 284.929 284.929" viewBox="0 0 284.929 284.929" id="arrow-down" xmlns="http://www.w3.org/2000/svg"><path d="m282.082 76.511-14.274-14.273c-1.902-1.906-4.093-2.856-6.57-2.856-2.471 0-4.661.95-6.563 2.856L142.466 174.441 30.262 62.241c-1.903-1.906-4.093-2.856-6.567-2.856-2.475 0-4.665.95-6.567 2.856L2.856 76.515C.95 78.417 0 80.607 0 83.082c0 2.473.953 4.663 2.856 6.565l133.043 133.046c1.902 1.903 4.093 2.854 6.567 2.854s4.661-.951 6.562-2.854L282.082 89.647c1.902-1.903 2.847-4.093 2.847-6.565 0-2.475-.945-4.665-2.847-6.571z"/></svg><svg viewBox="0 -19 569.285 569" id="briefcas" xmlns="http://www.w3.org/2000/svg"><path d="M521.582 94.965H388.816V47.55C388.786 21.375 367.574.164 341.402.133H227.598c-26.172.031-47.383 21.242-47.414 47.418v47.414H47.418C21.242 94.996.031 116.207 0 142.383V483.78c.031 26.176 21.242 47.387 47.418 47.418h474.164c26.176-.031 47.387-21.242 47.418-47.418V142.383c-.031-26.176-21.242-47.387-47.418-47.418zM199.148 47.55c0-15.715 12.739-28.453 28.45-28.453h113.8c15.715 0 28.45 12.738 28.45 28.453v47.414h-18.965V47.55c0-5.239-4.246-9.485-9.48-9.485H227.597c-5.235 0-9.48 4.246-9.48 9.485v47.414h-18.97zm37.934 47.414V57.03h94.836v37.934zM18.965 142.383c0-15.711 12.738-28.45 28.453-28.45h474.164c15.715 0 28.45 12.739 28.45 28.45v98.133l-218.114 95.96v-23.394a9.484 9.484 0 0 0-9.484-9.484h-75.868a9.484 9.484 0 0 0-9.484 9.484v23.395L18.965 240.516zM312.949 341.53h-56.898v-18.965h56.898zm-56.898 18.97h56.898v28.45c0 15.71-12.734 28.448-28.449 28.448-15.71 0-28.45-12.738-28.45-28.449zm265.531 151.734H47.418c-15.715 0-28.453-12.738-28.453-28.453V261.238l218.117 95.969v31.742c0 26.188 21.23 47.418 47.418 47.418s47.418-21.23 47.418-47.418v-31.742l218.113-95.969v222.543c.004 15.715-12.734 28.453-28.449 28.453zm0 0"/><path d="M275.016 379.465h18.968v18.969h-18.968zm0 0"/></svg><svg viewBox="0 0 480 480" id="business" xmlns="http://www.w3.org/2000/svg"><path d="M440 0H152c-22.082.027-39.973 17.918-40 40v72h16V40c0-13.254 10.746-24 24-24h216v72c0 3.234 1.95 6.152 4.938 7.39s6.43.551 8.718-1.734L400 75.312l18.344 18.344A8.001 8.001 0 0 0 424 96a7.849 7.849 0 0 0 3.063-.61A8.002 8.002 0 0 0 432 88V16h8c13.254 0 24 10.746 24 24v400c0 13.254-10.746 24-24 24H152c-10.945.004-20.508-7.395-23.246-17.992l-15.488 4c4.562 17.66 20.496 29.996 38.734 29.992h288c22.082-.027 39.973-17.918 40-40V40c-.027-22.082-17.918-39.973-40-40zm-24 68.688-10.344-10.344a8.004 8.004 0 0 0-11.312 0L384 68.687V16h32zm0 0"/><path d="M72 368h144a8 8 0 0 0 8-8v-39.84c-.04-17.847-11.852-33.531-29-38.488l-27-7.727v-10.152A39.82 39.82 0 0 0 184 232v-8a8 8 0 0 0 8-8v-8c0-26.508-21.492-48-48-48s-48 21.492-48 48v8a8 8 0 0 0 8 8v8a39.82 39.82 0 0 0 16 31.793v10.152l-26.992 7.72C75.855 286.62 64.039 302.308 64 320.16V360a8 8 0 0 0 8 8zm72-192c17.59 0 31.883 14.195 32 31.785a8.006 8.006 0 0 1-5.281-4.219l-3.559-7.132a8 8 0 0 0-11.602-3.09l-11.902 7.937A39.824 39.824 0 0 1 121.465 208H112c0-17.672 14.328-32 32-32zm-22.535 48a55.755 55.755 0 0 0 31.062-9.406l4.383-2.922a23.633 23.633 0 0 0 11.09 10V232c0 13.254-10.746 24-24 24s-24-10.746-24-24v-8zM144 272a39.869 39.869 0 0 0 8-.8v8.8a7.914 7.914 0 0 0 2.762 5.922L144 294l-10.762-8.078A7.914 7.914 0 0 0 136 280v-8.8a39.95 39.95 0 0 0 8 .8zm-64 48.16a24.11 24.11 0 0 1 17.398-23.113l17.403-4.969 24.398 18.32a7.992 7.992 0 0 0 9.602 0l24.398-18.32 17.41 4.977A24.093 24.093 0 0 1 208 320.16V352h-16v-32h-16v32h-64v-32H96v32H80zm0 0"/><path d="M240 424v-24h8a8 8 0 0 0 8-8V136a8 8 0 0 0-8-8H40a8 8 0 0 0-8 8v24H8a8 8 0 0 0-8 8v256a8 8 0 0 0 8 8h224a8 8 0 0 0 8-8zM48 144h192v240H48zM16 416V176h16v216a8 8 0 0 0 8 8h184v16zM160 48h64v16h-64zm0 32h64v16h-64zm128 48h144v16H288zm0 48h144v16H288zm0 48h144v16H288zm0 48h144v16H288zm0 48h144v16H288zm0 48h144v16H288zm0 0"/></svg><svg fill="#fff" viewBox="0 0 24 24" id="calendar" xmlns="http://www.w3.org/2000/svg"><path stroke="#005792" stroke-linecap="round" stroke-width="2" d="M3 9h18M7 3v2m10-2v2M6 12h2m3 0h2m3 0h2M6 15h2m3 0h2m3 0h2M6 18h2m3 0h2m3 0h2M6.2 21h11.6c1.12 0 1.68 0 2.108-.218a2 2 0 0 0 .874-.874C21 19.48 21 18.92 21 17.8V8.2c0-1.12 0-1.68-.218-2.108a2 2 0 0 0-.874-.874C19.48 5 18.92 5 17.8 5H6.2c-1.12 0-1.68 0-2.108.218a2 2 0 0 0-.874.874C3 6.52 3 7.08 3 8.2v9.6c0 1.12 0 1.68.218 2.108a2 2 0 0 0 .874.874C4.52 21 5.08 21 6.2 21Z"/></svg><svg viewBox="0 0 78.369 78.369" id="check" xmlns="http://www.w3.org/2000/svg"><path d="M78.049 19.015 29.458 67.606a1.094 1.094 0 0 1-1.548 0L.32 40.015a1.094 1.094 0 0 1 0-1.547l6.704-6.704a1.095 1.095 0 0 1 1.548 0l20.113 20.112 41.113-41.113a1.095 1.095 0 0 1 1.548 0l6.703 6.704a1.094 1.094 0 0 1 0 1.548z"/></svg><svg viewBox="0 0 24 25" id="close" xmlns="http://www.w3.org/2000/svg"><path d="M6.303 18.144a.878.878 0 0 0 1.23 0L12 13.676l4.468 4.468a.878.878 0 0 0 1.229 0 .886.886 0 0 0 .007-1.236l-4.468-4.468 4.46-4.46a.877.877 0 0 0 0-1.23.886.886 0 0 0-1.235-.007L12 11.204l-4.46-4.46a.886.886 0 0 0-1.237.006.877.877 0 0 0 0 1.23l4.461 4.46-4.468 4.468a.886.886 0 0 0 .007 1.236Z"/></svg><svg viewBox="0 0 290.883 290.883" id="cogwheel" xmlns="http://www.w3.org/2000/svg"><path fill="#4dd6fc" d="M145.444 248.566c-56.864 0-103.125-46.261-103.125-103.125S88.58 42.316 145.444 42.316s103.125 46.261 103.125 103.125-46.261 103.125-103.125 103.125zm0-187.5c-46.523 0-84.375 37.852-84.375 84.375s37.852 84.375 84.375 84.375 84.375-37.852 84.375-84.375-37.852-84.375-84.375-84.375z"/><path d="M267.319 145.441c0-4.898-.295-9.816-.877-14.672l24.441-7.941-14.48-44.583-24.469 7.945a122.106 122.106 0 0 0-17.236-23.728L249.82 41.66l-37.922-27.558-15.122 20.808a121.15 121.15 0 0 0-27.895-9.075V.129h-46.875v25.706a120.957 120.957 0 0 0-27.895 9.075L78.994 14.107 41.067 41.66l15.122 20.803a121.985 121.985 0 0 0-17.236 23.728l-24.464-7.945L.005 122.829l24.445 7.941c-.586 4.856-.881 9.773-.881 14.672s.295 9.816.877 14.672L0 168.054l14.484 44.583 24.464-7.945a122.106 122.106 0 0 0 17.236 23.728l-15.117 20.803 37.922 27.558 15.117-20.803a121.15 121.15 0 0 0 27.895 9.075v25.702h46.875v-25.706a120.957 120.957 0 0 0 27.895-9.075l15.117 20.803 37.922-27.558-15.122-20.803a121.985 121.985 0 0 0 17.236-23.728l24.469 7.945 14.48-44.583-24.441-7.941c.591-4.852.887-9.769.887-14.668zm11.756 28.627-8.691 26.756-23.067-7.5-1.828 3.544a112.803 112.803 0 0 1-20.212 27.83l-2.812 2.831 14.259 19.627-22.753 16.533-14.259-19.631-3.562 1.805a111.692 111.692 0 0 1-32.7 10.636l-3.942.628v24.253h-28.125v-24.253l-3.942-.638a111.515 111.515 0 0 1-32.7-10.636l-3.563-1.805-14.259 19.631-22.753-16.533 14.259-19.627-2.813-2.831a112.591 112.591 0 0 1-20.212-27.83l-1.828-3.544-23.067 7.5-8.691-26.756 23.044-7.486-.605-3.938a113.687 113.687 0 0 1 0-34.402l.605-3.938-23.044-7.486 8.691-26.756 23.067 7.5 1.828-3.544A112.775 112.775 0 0 1 65.611 66.18l2.813-2.831-14.26-19.626L76.917 27.19l14.259 19.631 3.563-1.805a111.692 111.692 0 0 1 32.7-10.636l3.942-.623V9.504h28.125v24.253l3.942.637a111.545 111.545 0 0 1 32.7 10.636l3.562 1.805 14.259-19.631 22.753 16.533-14.259 19.627 2.812 2.831a112.591 112.591 0 0 1 20.212 27.83l1.828 3.544 23.067-7.5 8.691 26.756-23.048 7.486.605 3.938c.872 5.648 1.313 11.433 1.313 17.194s-.441 11.545-1.308 17.208l-.605 3.938 23.045 7.479z"/><path d="m179.616 89.519-13.547 8.916 5.156 7.828 21.816-14.358-3.164-26.569-9.309 1.106 1.641 13.781c-28.837-16.252-65.831-11.78-89.794 12.183-26.437 26.438-29.25 68.77-6.544 98.475l7.448-5.695c-19.866-25.987-17.4-63.023 5.728-86.152 21.515-21.515 55.073-25.119 80.569-9.515zm17.957 16.177c19.866 25.987 17.4 63.023-5.728 86.152-21.525 21.52-55.083 25.125-80.578 9.52l13.552-8.92-5.156-7.828-21.816 14.358 3.164 26.569 9.309-1.106-1.641-13.758a74.85 74.85 0 0 0 36.75 9.661c19.327 0 38.569-7.392 53.039-21.867 26.437-26.438 29.25-68.77 6.544-98.475l-7.439 5.694z"/></svg><svg viewBox="0 0 511.874 511.874" id="contact" xmlns="http://www.w3.org/2000/svg"><path d="M490.114 12.813H132.568c-12.012.014-21.746 9.748-21.76 21.76v98.62l-16.35-24.525c-7.484-11.289-22.535-14.676-34.133-7.68l-33.638 20.224a49.355 49.355 0 0 0-22.545 29.244C-8.129 195.137.976 272.116 113.966 385.123c89.855 89.762 156.85 113.937 203.024 113.937 10.69.049 21.339-1.34 31.659-4.13a49.44 49.44 0 0 0 29.252-22.519l20.198-33.673c6.968-11.589 3.584-26.609-7.68-34.091l-80.546-53.692c-11.049-7.308-25.859-4.905-34.031 5.521l-23.45 30.148a8.166 8.166 0 0 1-10.445 2.21l-4.463-2.458c-14.686-8.004-32.964-17.971-69.879-54.886a605.694 605.694 0 0 1-11.008-11.307h333.517c11.982.009 21.713-9.676 21.76-21.658V34.573c-.014-12.012-9.748-21.746-21.76-21.76zM229.318 401.362l4.335 2.381c10.897 6.093 24.614 3.266 32.213-6.639l23.45-30.148a8.294 8.294 0 0 1 11.093-1.801l80.546 53.692a8.243 8.243 0 0 1 2.5 11.093l-20.198 33.673a32.425 32.425 0 0 1-19.123 14.848c-40.337 11.093-110.933 1.707-218.078-105.446S9.56 195.273 20.627 154.97a32.427 32.427 0 0 1 14.839-19.123l33.673-20.207a8.251 8.251 0 0 1 11.093 2.5l53.717 80.546a8.285 8.285 0 0 1-1.801 11.093l-30.157 23.458c-9.903 7.597-12.731 21.311-6.639 32.205l2.389 4.335c8.533 15.65 19.14 35.123 57.805 73.779 38.666 38.657 58.131 49.272 73.772 57.806zm265.49-102.836a4.659 4.659 0 0 1-4.693 4.608H141.203a215.204 215.204 0 0 1-28.476-41.506l-2.458-4.48a8.14 8.14 0 0 1 2.202-10.428l30.157-23.458c10.43-8.17 12.833-22.982 5.521-34.031l-20.275-30.43V34.573a4.642 4.642 0 0 1 4.693-4.693h357.547a4.642 4.642 0 0 1 4.693 4.693v263.953z"/><path d="m460.725 52.323-142.618 108.16a11.512 11.512 0 0 1-13.534 0L162.008 52.323a8.535 8.535 0 0 0-11.959 1.643 8.535 8.535 0 0 0 1.643 11.959l142.583 108.151a28.721 28.721 0 0 0 34.133 0L471.034 65.925a8.53 8.53 0 0 0 1.638-11.963 8.532 8.532 0 0 0-11.947-1.639zm-222.208 122.47-87.415 93.611a8.535 8.535 0 0 0 12.484 11.64l87.416-93.653a8.535 8.535 0 0 0-12.485-11.598zm146.211 0a8.534 8.534 0 0 0-12.062-.422 8.534 8.534 0 0 0-.422 12.062l87.39 93.611a8.534 8.534 0 0 0 12.062.422 8.534 8.534 0 0 0 .422-12.062l-87.39-93.611z"/></svg><svg viewBox="0 0 60 60" id="creativity" xmlns="http://www.w3.org/2000/svg"><path d="M51.768 44a13.42 13.42 0 0 0-.024-5.1l4.58-11.053a.17.17 0 0 0 0-.022 18.78 18.78 0 0 1 3.215-5.582 1.49 1.49 0 0 0 .369-1.365l-1.878-8.11a.979.979 0 0 0-.1-.242c-.008-.015-.011-.033-.019-.047-.008-.014-.043-.048-.063-.074a1.008 1.008 0 0 0-.141-.165.929.929 0 0 0-.109-.066 1.016 1.016 0 0 0-.155-.094.988.988 0 0 0-.234-.057c-.023 0-.043-.015-.066-.017a1 1 0 0 0-.551.123c-.015.008-.033.011-.048.02h-.01l-7.061 4.407a1.492 1.492 0 0 0-.706 1.23 18.77 18.77 0 0 1-1.681 6.233v.011l-2.289 5.533a13.414 13.414 0 0 0-3.572-1.29 53.99 53.99 0 0 0 .518-9.833 10.914 10.914 0 0 0 2.482-8.012C43.6 4.6 38.333.391 38.108.214a1 1 0 0 0-1.585 1.043c.515 1.934.069 3.975-3.735 8.172a5.852 5.852 0 0 0-1.371 6.377 7.763 7.763 0 0 0 1.424 2.3 70.05 70.05 0 0 0-.563 4.433 50.082 50.082 0 0 0-.174 7.092 13.606 13.606 0 0 0-2.49 1.735l-4.85-20.74c0-.021-.02-.036-.026-.055a.948.948 0 0 0-.07-.193l-4.954-9.149a2.309 2.309 0 0 0-4.338 1.016L15 12.64c0 .075.009.15.025.223v.045l4.948 21.117c-.78.034-1.555.15-2.312.345l-5.443-13.145a2.021 2.021 0 0 0-2.61-1.069L1.289 23.6a2.006 2.006 0 0 0-1.083 2.613l7.382 17.808A7.995 7.995 0 0 0 8 60h44a8 8 0 1 0-.232-16zm-1.019-25.884 4.192-2.616-1.484 3.584a1 1 0 0 0 1.848.766l1.484-3.584 1.111 4.813a19.78 19.78 0 0 0-2.9 4.787 4.113 4.113 0 0 1-5.59-2.312 19.754 19.754 0 0 0 1.339-5.438zm-2.3 7.851a6.091 6.091 0 0 0 2.493 1.815 6.345 6.345 0 0 0 2.447.516 5.3 5.3 0 0 0 .606-.037l-3.191 7.7a13.572 13.572 0 0 0-4.294-5.309l1.939-4.685zm-13.7-7.142 5.024.307c.031.934.02 1.9-.011 2.881a21.02 21.02 0 0 1-5.01-.242c-.126-.018-.249-.032-.374-.049.1-.942.222-1.896.369-2.897h.002zm-.477-8.053c2.655-2.929 4.031-5.182 4.351-7.3a13.374 13.374 0 0 1 3.609 7.168 8.96 8.96 0 0 1-2.024 6.512c-1.975-.12-3.929-.24-5.861-.36a4.171 4.171 0 0 1-.077-6.02h.002zm-.076 12.943.29.038c1.289.2 2.59.31 3.893.331.414 0 .85-.033 1.287-.067a62.884 62.884 0 0 1-.429 4.02c-.247-.013-.489-.037-.737-.037-1.51.003-3.008.26-4.432.763a48.264 48.264 0 0 1 .126-5.048h.002zm-7.735 11.694L23.6 23.222a1 1 0 0 0-1.947.456l2.571 10.969a11.326 11.326 0 0 0-2.18-.543l-4.389-18.73a4.74 4.74 0 0 0 1.958.426c.063 0 .13-.009.194-.012l.707 3.019a1 1 0 1 0 1.947-.456l-.708-3.021A4.736 4.736 0 0 0 23.5 14l4.462 19.079a13.415 13.415 0 0 0-1.501 2.33zm-6.11-21.7a3.32 3.32 0 0 1-3.339-1.337l.127-3.522c.348.065.701.098 1.055.1.342.001.683-.036 1.016-.113a5.094 5.094 0 0 0 1.854-.922l1.684 3.108a3.317 3.317 0 0 1-2.397 2.688v-.002zM17.612 2.027a.312.312 0 0 1 .344.154L20.1 6.146a3.42 3.42 0 0 1-1.35.75 3.4 3.4 0 0 1-1.541-.073l.163-4.506a.31.31 0 0 1 .24-.29zM10.375 22l.764 1.846-3.7 1.532a1 1 0 0 0 .768 1.846l3.7-1.533.765 1.848-1.851.767a1 1 0 1 0 .766 1.848l1.851-.767.765 1.848L10.5 32.77a1 1 0 1 0 .766 1.848l3.7-1.532.809 1.953A11.609 11.609 0 0 0 9.3 42.92L2.052 25.444 10.375 22zM52 58H8a6 6 0 1 1 1.711-11.752A1 1 0 0 0 11 45.309 9.5 9.5 0 0 1 26.2 37.9a1 1 0 0 0 1.533-.45A11.5 11.5 0 0 1 50 41.5a11.394 11.394 0 0 1-.505 3.374 1 1 0 0 0 1.17 1.272A6.246 6.246 0 0 1 52 46a6 6 0 1 1 0 12z"/><path d="M38.685 15.7a1 1 0 0 0 .8-.395 7.5 7.5 0 0 0 1.33-5.888 1 1 0 1 0-1.932.515 5.555 5.555 0 0 1-.992 4.166 1 1 0 0 0 .8 1.6l-.006.002zM37.37 46a4.916 4.916 0 0 0-2.145.5 6 6 0 0 0-10.365 5.89 1 1 0 0 0 1.84-.784A4.074 4.074 0 0 1 26.37 50a4 4 0 0 1 4-4 3.96 3.96 0 0 1 3.615 2.3c.022.033.045.064.07.094a.956.956 0 0 0 .053.1c.018.022.044.032.064.053a.954.954 0 0 0 .155.13c.05.038.104.072.16.1a.99.99 0 0 0 .18.056.919.919 0 0 0 .188.029 1.24 1.24 0 0 0 .382-.064.755.755 0 0 0 .079-.019.9.9 0 0 0 .093-.069 1.04 1.04 0 0 0 .105-.054A2.949 2.949 0 0 1 37.37 48a3 3 0 0 1 2.72 1.745 1 1 0 0 0 1.82-.83A5 5 0 0 0 37.37 46zm-19.686-6.949C17.533 39.1 14 40.322 14 44a1 1 0 0 0 2 0 3.438 3.438 0 0 1 2.322-3.053 1.002 1.002 0 0 0-.638-1.9v.004zm14.073-1.081a1 1 0 0 0 1.212-.727A4.265 4.265 0 0 1 37.005 34 1 1 0 0 0 37 32a6.229 6.229 0 0 0-5.97 4.757 1 1 0 0 0 .727 1.213z"/></svg><svg viewBox="0 0 569 569.549" id="customer-support" xmlns="http://www.w3.org/2000/svg"><path d="m1.527 52.246 37.985 66.469a9.488 9.488 0 0 0 5.933 4.5l35.438 8.86 121.543 121.542 13.43-13.426L92.41 116.75a9.47 9.47 0 0 0-4.406-2.5l-34.05-8.543-32.34-56.625L49.34 21.355l56.648 32.372 8.547 34.05a9.47 9.47 0 0 0 2.496 4.414l123.446 123.446 13.425-13.43L132.36 80.664l-8.86-35.418a9.511 9.511 0 0 0-4.5-5.945L52.527 1.32a9.496 9.496 0 0 0-11.394 1.527L3.153 40.832a9.495 9.495 0 0 0-1.626 11.414zm394.786 134.899L187.41 396.05l-13.43-13.43 208.907-208.9zM150.848 403.441a9.493 9.493 0 0 0-8.141-4.605H85.734a9.486 9.486 0 0 0-8.136 4.605l-28.489 47.477a9.495 9.495 0 0 0 0 9.781l28.489 47.477a9.495 9.495 0 0 0 8.136 4.605h56.973a9.501 9.501 0 0 0 8.14-4.605l28.485-47.477a9.495 9.495 0 0 0 0-9.781zm-13.512 90.348H91.109L68.32 455.81l22.79-37.985h46.226l22.789 37.985zm0 0"/><path d="M456.063 227.914c62.714.211 113.73-50.46 113.94-113.176a113.589 113.589 0 0 0-3.487-28.308c-1.266-5.09-6.418-8.188-11.508-6.922a9.522 9.522 0 0 0-4.414 2.496l-59.11 59.07-46.898-15.629-15.64-46.886 59.109-59.121a9.495 9.495 0 0 0-4.453-15.934c-60.82-15.402-122.606 21.414-138.008 82.23a113.327 113.327 0 0 0-3.477 28.23c.024 7.477.793 14.93 2.309 22.25L136.469 344.169a112.023 112.023 0 0 0-22.246-2.309C51.289 341.86.273 392.875.273 455.81c0 62.93 51.016 113.945 113.95 113.945 62.93 0 113.945-51.016 113.945-113.945a111.742 111.742 0 0 0-2.309-22.25l49.786-49.786 21.773 21.774a9.499 9.499 0 0 0 13.43 0l4.746-4.75c4.164-4.137 10.894-4.137 15.058 0 4.16 4.148 4.168 10.883.02 15.043l-.02.02-4.746 4.745c-3.707 3.707-3.707 9.72 0 13.426L439.18 547.305c29.793 30.066 78.316 30.285 108.382.492 30.063-29.793 30.282-78.32.489-108.383-.16-.164-.324-.328-.489-.492L434.29 325.652c-3.707-3.707-9.719-3.707-13.426 0l-4.746 4.746c-4.168 4.141-10.894 4.141-15.062 0-4.157-4.148-4.168-10.882-.02-15.039.008-.007.016-.011.02-.02l4.75-4.75c3.707-3.706 3.707-9.718 0-13.425l-21.774-21.773 49.785-49.786a111.733 111.733 0 0 0 22.247 2.31zm37.308 322.852a57.7 57.7 0 0 1-20.195-3.684l74.16-74.164c11.191 29.77-3.867 62.973-33.637 74.164a57.6 57.6 0 0 1-20.328 3.684zM385.797 303.973c-10.516 12.543-8.867 31.238 3.676 41.75 11.023 9.238 27.09 9.23 38.101-.028l106.563 106.657c1.156 1.16 2.238 2.382 3.285 3.625l-81.188 81.187a55.28 55.28 0 0 1-3.629-3.285L345.961 427.227c10.516-12.543 8.867-31.239-3.676-41.75-11.023-9.243-27.094-9.23-38.105.023l-15.192-15.191 81.614-81.493zm38.344-95.504L208.73 423.836a9.51 9.51 0 0 0-2.508 9.023c13.027 51.16-17.887 103.196-69.051 116.22-51.16 13.026-103.195-17.888-116.223-69.052-13.023-51.16 17.89-103.195 69.055-116.222a95.649 95.649 0 0 1 47.168 0 9.58 9.58 0 0 0 9.023-2.504l215.36-215.371a9.49 9.49 0 0 0 2.496-9.02c-12.938-50.562 17.562-102.039 68.125-114.98a94.55 94.55 0 0 1 29.281-2.766l-50.09 50.11a9.487 9.487 0 0 0-2.297 9.71l18.989 56.977a9.504 9.504 0 0 0 6.011 6l56.977 18.992a9.496 9.496 0 0 0 9.71-2.289l50.09-50.09a86.32 86.32 0 0 1 .173 5.39c.265 52.177-41.813 94.688-93.989 94.958a94.602 94.602 0 0 1-23.918-2.953 9.504 9.504 0 0 0-9.023 2.496h.05zm0 0"/><path d="m491.273 477.578-13.43 13.43-94.952-94.953 13.425-13.43zm0 0"/></svg><svg viewBox="0 0 511.991 511.991" id="email" xmlns="http://www.w3.org/2000/svg"><path d="M511.991 196.243c0-.179-.094-.333-.102-.503a8.146 8.146 0 0 0-.35-1.741 8.824 8.824 0 0 0-.486-1.476 8.236 8.236 0 0 0-.853-1.28 8.38 8.38 0 0 0-1.161-1.348c-.137-.12-.196-.282-.341-.393l-82.039-63.735V59.71c0-14.138-11.462-25.6-25.6-25.6h-92.476L271.556 5.361a25.319 25.319 0 0 0-31.121 0L203.401 34.11h-92.476c-14.138 0-25.6 11.461-25.6 25.6v66.057L3.294 189.502c-.145.111-.205.273-.341.393a8.38 8.38 0 0 0-1.161 1.348c-.324.399-.61.828-.853 1.28-.207.476-.37.97-.486 1.476a8.087 8.087 0 0 0-.35 1.707c0 .171-.102.324-.102.503v290.167a25.294 25.294 0 0 0 1.425 8.064 8.456 8.456 0 0 0 9.387 12.8 25.415 25.415 0 0 0 14.78 4.736h460.8a25.427 25.427 0 0 0 14.822-4.804 8.378 8.378 0 0 0 2.244.367 8.456 8.456 0 0 0 7.117-13.098 25.318 25.318 0 0 0 1.417-8.064V196.243zM250.871 18.827a8.182 8.182 0 0 1 10.18 0l19.686 15.283h-49.493l19.627-15.283zM27.708 494.91l223.164-173.346a8.209 8.209 0 0 1 10.172 0L484.275 494.91H27.708zm467.217-13.329L271.539 308.09a25.309 25.309 0 0 0-31.095 0L17.058 481.581V209.239l139.836 108.587a8.536 8.536 0 0 0 11.977-1.515 8.536 8.536 0 0 0-1.515-11.977L25.293 194.016l60.032-46.643v65.937a8.533 8.533 0 0 0 17.066 0V59.71a8.533 8.533 0 0 1 8.533-8.533h290.133a8.533 8.533 0 0 1 8.533 8.533v153.6a8.533 8.533 0 0 0 17.066 0v-65.937l60.032 46.643-142.317 110.515a8.536 8.536 0 0 0 10.471 13.483L494.925 209.24v272.341z"/><path d="M170.658 110.91h170.667c4.713 0 8.533-3.82 8.533-8.533s-3.82-8.533-8.533-8.533H170.658c-4.713 0-8.533 3.82-8.533 8.533s3.82 8.533 8.533 8.533zm179.2 42.667a8.533 8.533 0 0 0-8.533-8.533H170.658a8.533 8.533 0 0 0 0 17.066h170.667a8.533 8.533 0 0 0 8.533-8.533zm0 51.2a8.533 8.533 0 0 0-8.533-8.533h-76.8c-4.713 0-8.533 3.82-8.533 8.533s3.82 8.533 8.533 8.533h76.8a8.533 8.533 0 0 0 8.533-8.533z"/></svg><svg viewBox="0 0 285.334 285.334" id="goal" xmlns="http://www.w3.org/2000/svg"><path fill="#4dd6fc" d="m160.154 28.122 18.75-28.128 28.129 18.751-18.751 28.128z"/><path d="M168.385 238.191c1.847-.67 3.563-1.702 5.016-3.127 3.169-3.113 4.65-7.42 4.064-11.827l-7.931-59.48v-42.258l34.589-12.352a12.973 12.973 0 0 0 8.377-9.867l5.259-28.936 43.008 27.366 5.034-7.912-46.528-29.606a13.78 13.78 0 0 0-3.192-8.353 13.771 13.771 0 0 0-10.598-4.959c-1.913 0-3.717.417-5.377 1.111l-37.43-23.817-5.034 7.913 35.466 22.566c-.591 1.223-1.05 2.527-1.27 3.933l-4.35 28.27-27.516 9.314c-5.133-4.547-11.742-7.102-18.563-7.102-6.038 0-11.845 1.959-16.973 5.803l-1.448 1.2c-.352.305-8.03 7.28-14.391 13.059V94.257c0-7.106-5.044-13.284-11.733-14.372-4.12-.68-8.288.483-11.433 3.159a14.02 14.02 0 0 0-4.959 10.711v38.217c0 9.942 8.091 18.033 18.033 18.033 4.467 0 8.752-1.645 12.061-4.631l2.719-2.442v20.827l-7.884 59.137c-.9 6.75 2.963 13.111 9.042 15.291-7.477 2.109-14.756 5.072-21.642 8.977l-52.964 30.014 4.622 8.156 52.964-30.014c27.136-15.37 60.849-15.375 87.98 0l52.964 30.014 4.622-8.156-52.964-30.014c-6.889-3.901-14.168-6.863-21.64-8.973zm-64.093-99.783a8.627 8.627 0 0 1-5.789 2.222c-4.772 0-8.658-3.886-8.658-8.658V93.755c0-1.378.6-2.681 1.655-3.572 1.069-.905 2.433-1.27 3.858-1.05 2.166.356 3.863 2.606 3.863 5.123v36.061l7.838-7.125s21.281-19.341 21.994-19.973l1.177-.98c7.716-5.775 18.652-4.613 25.027 2.442l2.062 2.283 38.564-13.055 5.213-33.9c.014-.08.061-.141.075-.22l8.044 5.119-5.944 32.695a3.576 3.576 0 0 1-2.306 2.714l-40.807 14.579v49.172l8.011 60.408a4.576 4.576 0 0 1-1.341 3.9c-.609.605-1.945 1.58-3.994 1.256-1.936-.295-3.553-2.119-3.848-4.341l-8.789-65.911h-17.583l-8.841 66.314a4.601 4.601 0 0 1-2.03 3.234c-1.13.75-2.512.952-3.895.577-2.095-.581-3.488-2.934-3.164-5.367l7.927-59.452.047-42.806-18.366 16.528zm24.469 96.821c2.32-2.189 3.881-5.086 4.308-8.292l7.753-58.181h1.167l7.706 57.778a14.721 14.721 0 0 0 4.448 8.709 99.551 99.551 0 0 0-25.382-.014z"/><path d="M169.533 60.943c0-15.511-12.614-28.125-28.125-28.125s-28.125 12.614-28.125 28.125 12.614 28.125 28.125 28.125 28.125-12.614 28.125-28.125zm-28.125 18.75c-10.341 0-18.75-8.409-18.75-18.75s8.409-18.75 18.75-18.75 18.75 8.409 18.75 18.75-8.409 18.75-18.75 18.75zm112.5 46.875h-9.375v9.375h-9.375v9.375h9.375v9.375h9.375v-9.375h9.375v-9.375h-9.375zm-37.5 46.875v-4.688h4.688v-9.375h-4.688v-4.687h-9.375v4.687h-4.687v9.375h4.687v4.688zm28.125-4.688h-9.375v9.375h-9.375v9.375h9.375v9.375h9.375v-9.375h9.375v-9.375h-9.375zM71.095 42.193h9.375v-9.375h9.375v-9.375H80.47v-9.375h-9.375v9.375H61.72v9.375h9.375zm-37.5-14.063v-4.687h4.688v-9.375h-4.688V9.38H24.22v4.688h-4.687v9.375h4.687v4.687zm14.063 42.188v-9.375h9.375v-9.375h-9.375v-9.375h-9.375v9.375h-9.375v9.375h9.375v9.375z"/></svg><svg viewBox="0 0 512.002 512.002" id="key" xmlns="http://www.w3.org/2000/svg"><circle cx="364" cy="140.062" r="32"/><path d="M506.478 165.937c-10.68-27.194-30.264-66.431-62.915-98.927-32.535-32.384-71.356-51.408-98.194-61.666-29.464-11.261-62.945-4.163-85.295 18.082l-78.538 78.17c-23.281 23.171-29.991 58.825-16.698 88.72a369.522 369.522 0 0 0 13.395 27.103L5.858 389.793A20 20 0 0 0 0 403.936v88c0 11.046 8.954 20 20 20h88c11.046 0 20-8.954 20-20v-36l36-.001c11.046 0 20-8.954 20-20v-35.999h36c11.046 0 20-8.954 20-20s-8.954-20-20-20h-56c-11.046 0-20 8.954-20 20v35.999l-36 .001c-11.046 0-20 8.954-20 20v36H40V412.22l177.355-177.354a20 20 0 0 0 2.958-24.517c-6.931-11.424-13.298-23.632-18.923-36.285-6.599-14.841-3.237-32.57 8.366-44.119l78.537-78.169c11.213-11.159 28.011-14.718 42.798-9.068 23.222 8.876 56.69 25.214 84.256 52.652 27.735 27.604 44.62 61.567 53.9 85.197a39.716 39.716 0 0 1-8.965 42.687l-79.486 79.114c-11.575 11.519-28.851 14.887-44.016 8.58-12.507-5.202-24.62-11.382-36-18.367-9.413-5.778-21.729-2.83-27.507 6.584-5.778 9.414-2.831 21.73 6.583 27.508 13.152 8.072 27.136 15.207 41.562 21.207 30.142 12.539 64.525 5.8 87.595-17.161l79.486-79.113c22.545-22.439 29.602-56.062 17.979-85.659z"/></svg><svg viewBox="0 0 32 32" id="landing" xmlns="http://www.w3.org/2000/svg"><path d="M28 3.5H4A2.5 2.5 0 0 0 1.5 6v20A2.5 2.5 0 0 0 4 28.5h24a2.5 2.5 0 0 0 2.5-2.5V6A2.5 2.5 0 0 0 28 3.5ZM29.5 26a1.5 1.5 0 0 1-1.5 1.5H4A1.5 1.5 0 0 1 2.5 26V8.5h27ZM2.5 7.5V6A1.5 1.5 0 0 1 4 4.5h24A1.5 1.5 0 0 1 29.5 6v1.5Zm25-1.5a.5.5 0 1 1-.5-.5.5.5 0 0 1 .5.5ZM26 6a.5.5 0 1 1-.5-.5.5.5 0 0 1 .5.5Zm-1.5 0a.5.5 0 1 1-.5-.5.5.5 0 0 1 .5.5ZM5 14.5h22a.5.5 0 0 0 .5-.5v-4a.5.5 0 0 0-.5-.5H5a.5.5 0 0 0-.5.5v4a.5.5 0 0 0 .5.5Zm.5-4h21v3h-21Zm-.5 10h22a.5.5 0 0 0 .5-.5v-4a.5.5 0 0 0-.5-.5H5a.5.5 0 0 0-.5.5v4a.5.5 0 0 0 .5.5Zm.5-4h21v3h-21Zm-.5 10h22a.5.5 0 0 0 .5-.5v-4a.5.5 0 0 0-.5-.5H5a.5.5 0 0 0-.5.5v4a.5.5 0 0 0 .5.5Zm.5-4h21v3h-21Z"/></svg><svg viewBox="0 0 512 512" id="like" xmlns="http://www.w3.org/2000/svg"><path d="M346 0c-5.522 0-10 4.478-10 10v46c0 5.522 4.478 10 10 10s10-4.478 10-10V10c0-5.522-4.478-10-10-10zM116 312c-5.52 0-10 4.48-10 10s4.48 10 10 10 10-4.48 10-10-4.48-10-10-10z"/><path d="M486 292c0-22.056-17.944-40-40-40h-74.652c11.557-29.603 16.235-64.447 15.333-95.464-.172-5.919-.399-9.342-.706-11.497C385.458 123.432 367.716 106 346 106c-22.056 0-40 17.944-40 40v10c0 63.246-81.214 98.781-142.504 114.019C158.862 259.425 148.284 252 136 252H36c-5.522 0-10 4.478-10 10v240c0 5.522 4.478 10 10 10h100c12.202 0 22.719-7.327 27.401-17.809a3274.4 3274.4 0 0 1 14.135 3.668C212.451 506.978 231.684 512 278.46 512H386c22.056 0 40-17.944 40-40a39.764 39.764 0 0 0-6.77-22.238C434.678 444.359 446 429.599 446 412c0-8.194-2.436-15.869-6.696-22.262C454.684 384.326 466 369.6 466 352a39.764 39.764 0 0 0-6.77-22.238C474.678 324.359 486 309.599 486 292zM146 482c0 5.514-4.486 10-10 10H46V272h90c5.514 0 10 4.486 10 10v200zm300-170h-50c-5.522 0-10 4.478-10 10s4.478 10 10 10h30c11.028 0 20 8.972 20 20 0 11.046-8.954 20-20 20h-50c-5.522 0-10 4.478-10 10s4.478 10 10 10h30c10.897 0 20 8.705 20 20 0 11.046-8.954 20-20 20h-50c-5.522 0-10 4.478-10 10s4.478 10 10 10h30c11.028 0 20 8.972 20 20s-8.972 20-20 20H278.46c-44.207 0-61.473-4.509-95.87-13.492a2882.872 2882.872 0 0 0-16.59-4.295V290.025C238.368 272.787 326 230.711 326 156v-10c0-11.028 8.972-20 20-20 11.008 0 19.979 8.958 20 19.969V146c0 4.346 5.424 57.683-16.326 106H316c-5.522 0-10 4.478-10 10s4.478 10 10 10h130c11.028 0 20 8.972 20 20 0 11.046-8.954 20-20 20z"/><path d="M116 352c-5.522 0-10 4.478-10 10v80c0 5.522 4.478 10 10 10s10-4.478 10-10v-80c0-5.522-4.478-10-10-10zm150-226h-40c-5.522 0-10 4.478-10 10s4.478 10 10 10h40c5.522 0 10-4.478 10-10s-4.478-10-10-10zm200 0h-40c-5.522 0-10 4.478-10 10s4.478 10 10 10h40c5.522 0 10-4.478 10-10s-4.478-10-10-10zm-28.079-81.921c-3.906-3.904-10.236-3.904-14.143 0l-28.279 28.279c-3.905 3.905-3.905 10.237 0 14.143 3.907 3.905 10.236 3.904 14.143 0l28.279-28.279c3.905-3.905 3.905-10.237 0-14.143zm-141.42 28.279-28.279-28.279c-3.906-3.904-10.236-3.904-14.143 0-3.905 3.905-3.905 10.237 0 14.143l28.279 28.279c3.908 3.905 10.237 3.904 14.143 0 3.905-3.905 3.905-10.237 0-14.143z"/></svg><svg viewBox="0 0 295.239 295.239" id="profits" xmlns="http://www.w3.org/2000/svg"><path fill="#4dd6fc" d="M52.381 104.762h190.476v109.524H52.381z"/><path d="M261.905 100c0-4.662-2.281-8.771-5.748-11.381l19.233-23.081c1.71.729 3.59 1.129 5.562 1.129 7.876 0 14.286-6.41 14.286-14.286s-6.41-14.286-14.286-14.286-14.286 6.41-14.286 14.286c0 2.424.662 4.671 1.733 6.676L246.18 85.714H47.619c-7.876 0-14.286 6.41-14.286 14.286v123.81H0v19.048c0 7.876 6.41 14.286 14.286 14.286h266.667c7.876 0 14.286-6.41 14.286-14.286V223.81h-33.333V100h-.001zm19.047-52.381c2.624 0 4.762 2.138 4.762 4.762s-2.138 4.762-4.762 4.762-4.762-2.138-4.762-4.762 2.138-4.762 4.762-4.762zM42.857 100a4.77 4.77 0 0 1 4.762-4.762h190.629l-56.495 67.795a14.147 14.147 0 0 0-5.562-1.129c-3.843 0-7.319 1.543-9.89 4.019l-33.143-16.571c.071-.576.176-1.143.176-1.733 0-7.876-6.41-14.286-14.286-14.286s-14.286 6.41-14.286 14.286c0 2.2.538 4.257 1.433 6.119l-23.881 23.881c-1.867-.89-3.924-1.429-6.124-1.429-7.876 0-14.286 6.41-14.286 14.286 0 7.876 6.41 14.286 14.286 14.286s14.286-6.41 14.286-14.286c0-2.2-.538-4.257-1.433-6.119l23.881-23.881c1.867.89 3.924 1.429 6.124 1.429 3.843 0 7.319-1.543 9.89-4.019l33.143 16.571c-.071.576-.176 1.143-.176 1.733 0 7.876 6.41 14.286 14.286 14.286s14.286-6.41 14.286-14.286c0-2.424-.662-4.671-1.733-6.676l61.276-73.533c1.386.838 2.362 2.29 2.362 4.019v123.81H42.857V100zm138.095 76.19c0 2.624-2.138 4.762-4.762 4.762s-4.762-2.138-4.762-4.762 2.138-4.762 4.762-4.762a4.771 4.771 0 0 1 4.762 4.762zm-66.666-28.571c0-2.624 2.138-4.762 4.762-4.762s4.762 2.138 4.762 4.762-2.138 4.762-4.762 4.762-4.762-2.138-4.762-4.762zm-33.334 42.857c0 2.624-2.138 4.762-4.762 4.762s-4.762-2.138-4.762-4.762 2.138-4.762 4.762-4.762 4.762 2.138 4.762 4.762zm204.762 42.857v9.524a4.77 4.77 0 0 1-4.762 4.762H14.286a4.77 4.77 0 0 1-4.762-4.762v-9.524h276.19z"/></svg><svg viewBox="0 0 295.239 295.239" id="project" xmlns="http://www.w3.org/2000/svg"><path fill="#4dd6fc" d="M204.762.001H42.857v295.238h209.524V52.382z"/><path d="M252.381 52.382h-47.619V.001h-9.524v61.905h57.143zm19.048 47.619H108.081l-35.714 23.81 35.714 23.81h163.348c13.129 0 23.81-10.681 23.81-23.81s-10.682-23.81-23.81-23.81zm-166.667 13.657v20.3l-15.224-10.147 15.224-10.153zm157.143 24.438H114.286v-9.524h133.333v-9.524H114.286v-9.524h147.619v28.572zm9.524 0v-28.571c7.876 0 14.286 6.41 14.286 14.286s-6.41 14.285-14.286 14.285zM0 247.62h228.571v-66.667H0v66.667zm9.524-57.143h9.524v14.286h9.524v-14.286h9.524v14.286h9.524v-14.286h9.524v23.81h9.524v-23.81h9.524v14.286h9.524v-14.286h9.524v14.286h9.524v-14.286h9.524v23.81h9.524v-23.81h9.524v14.286h9.524v-14.286h9.524v14.286h9.524v-14.286h9.524v23.81h9.524v-23.81h38.095v47.62H9.524v-47.62z"/><path d="M204.762 200.001c-7.876 0-14.286 6.41-14.286 14.286 0 7.876 6.41 14.286 14.286 14.286s14.286-6.41 14.286-14.286c0-7.876-6.41-14.286-14.286-14.286zm0 19.048c-2.624 0-4.762-2.133-4.762-4.762s2.138-4.762 4.762-4.762 4.762 2.133 4.762 4.762a4.767 4.767 0 0 1-4.762 4.762zM66.667 23.811h114.286v9.524H66.667zm0 23.809h114.286v9.524H66.667zm0 23.81h114.286v9.524H66.667z"/></svg><svg xml:space="preserve" style="fill-rule:evenodd;clip-rule:evenodd;stroke-linejoin:round;stroke-miterlimit:2" viewBox="0 0 64 64" id="quiz" xmlns="http://www.w3.org/2000/svg"><path d="M26.5 40.5V58c0 .796.316 1.559.879 2.121A2.996 2.996 0 0 0 29.5 61h28.041a3 3 0 0 0 3-3V45a1 1 0 0 0-2 0v13a.997.997 0 0 1-1 1H29.5a.997.997 0 0 1-1-1V40.5a1 1 0 0 0-2 0Zm7.041-5.5H5.5a1 1 0 0 1-1-1V22a1 1 0 0 0-2 0v12a3 3 0 0 0 3 3h25v19a1 1 0 0 0 1 1h24.041a1 1 0 0 0 1-1V31.959a1 1 0 0 0-1-1h-17a1 1 0 0 0 0 2h16V55H32.5V37h1.041a3 3 0 0 0 3-3v-5.041h21a.997.997 0 0 1 1 1V40a1 1 0 0 0 2 0V29.959c0-.796-.316-1.559-.878-2.122a3.004 3.004 0 0 0-2.122-.878h-21v-21a3 3 0 0 0-3-3H5.5a3 3 0 0 0-3 3V18a1 1 0 0 0 2 0V5.959a1 1 0 0 1 1-1h28.041a1 1 0 0 1 1 1V34a1 1 0 0 1-1 1Zm7.313 12.4h6.042l2.188 5.001a1 1 0 0 0 1.832-.802l-6.125-14a1 1 0 0 0-1.832 0l-6.125 14a1 1 0 0 0 1.832.802l2.188-5.001Zm.875-2h4.292l-2.146-4.905-2.146 4.905ZM32.541 7.959a1 1 0 0 0-1-1H7.5a1 1 0 0 0-1 1V32a1 1 0 0 0 1 1h24.041a1 1 0 0 0 1-1V7.959Zm-2 1V31H8.5V8.959h22.041Zm-5.85 18.146 1.602 1.602a1 1 0 0 0 1.414-1.414l-1.479-1.479a8.493 8.493 0 0 0 2.313-5.835c0-4.702-3.818-8.52-8.52-8.52-4.703 0-8.521 3.818-8.521 8.52 0 4.703 3.818 8.521 8.521 8.521a8.47 8.47 0 0 0 4.67-1.395Zm.122-2.706a6.494 6.494 0 0 0 1.728-4.42 6.524 6.524 0 0 0-6.52-6.52 6.524 6.524 0 0 0-6.521 6.52 6.524 6.524 0 0 0 9.737 5.673l-.944-.945a1 1 0 0 1 1.414-1.414l1.106 1.106Z"/></svg><svg viewBox="-6 0 511 512" id="responsive" xmlns="http://www.w3.org/2000/svg"><path d="M355.398 172.852v.003a7.648 7.648 0 0 0 1.336 1.934l17.391 18.586a7.537 7.537 0 0 0 5.52 2.395 7.557 7.557 0 0 0 5.516-12.723l-5.524-5.906h18.308a1.9 1.9 0 0 1 1.875 1.875v93.246a7.555 7.555 0 0 0 7.555 7.554 7.556 7.556 0 0 0 7.559-7.554v-93.246c0-9.368-7.622-16.989-16.989-16.989h-18.308l5.523-5.906a7.552 7.552 0 0 0-.355-10.68 7.552 7.552 0 0 0-10.68.356l-17.39 18.582a7.593 7.593 0 0 0-1.333 1.926 7.562 7.562 0 0 0-.746 3.285 7.547 7.547 0 0 0 .742 3.262zm-207.55 111.925-16.364-17.504a7.564 7.564 0 0 0-10.683-.359 7.564 7.564 0 0 0-.36 10.684l4.516 4.828H108.68c-.7 0-1.317-.617-1.317-1.32v-87.93a7.557 7.557 0 1 0-15.113 0v87.93c0 9.062 7.371 16.433 16.434 16.433h16.273l-4.512 4.828a7.552 7.552 0 0 0 .36 10.68 7.526 7.526 0 0 0 5.16 2.039 7.532 7.532 0 0 0 5.52-2.399l16.363-17.5a7.372 7.372 0 0 0 1.351-1.968 7.506 7.506 0 0 0 .727-3.239c0-1.105-.238-2.21-.727-3.234a7.463 7.463 0 0 0-1.351-1.969zm0 0"/><path d="M466.371 54.184h-126.52V16.492C339.852 7.398 332.454 0 323.36 0H177.168c-9.094 0-16.492 7.398-16.492 16.492v37.692H33.602C15.348 54.184.5 69.66.5 88.688v308.757c0 19.028 14.848 34.504 33.102 34.504H144.64l-6.313 17.7H125.79c-17.187 0-31.172 13.988-31.172 31.175v17.34c0 7.629 6.203 13.836 13.832 13.836h275.106c7.629 0 13.836-6.207 13.836-13.836v-17.34c0-17.187-13.985-31.176-31.172-31.176h-15.145l-6.328-17.699h121.629c18.266 0 33.129-15.476 33.129-34.504V88.687c0-19.023-14.863-34.503-33.133-34.503zM175.79 239.414h148.945v11.012c0 .73-.64 1.375-1.375 1.375H177.168a1.396 1.396 0 0 1-1.379-1.375zm1.379-224.3H323.36a1.4 1.4 0 0 1 1.38 1.378v11.242H175.79V16.492c0-.762.617-1.379 1.379-1.379zM33.602 69.3h127.074v17.875H45.16c-7.562 0-13.484 6.254-13.484 14.242v250.02c0 7.789 6.336 14.125 14.125 14.125H230.5a7.557 7.557 0 1 0 0-15.114H46.793V102.29h113.883v47.707a7.556 7.556 0 0 0 7.558 7.555 7.555 7.555 0 0 0 7.555-7.555V42.848h148.945V224.3H175.79v-42.074a7.557 7.557 0 1 0-15.113 0v68.199c0 9.09 7.398 16.488 16.492 16.488H323.36c9.094 0 16.493-7.398 16.493-16.488v-148.13l113.359.11V350.45l-186.902.29a7.562 7.562 0 0 0-7.547 7.57 7.557 7.557 0 0 0 7.558 7.546h.012l187.867-.293c7.79 0 14.125-6.335 14.125-14.125v-250.02c0-7.79-6.336-14.129-14.117-14.129l-114.355-.11V69.302h126.52c9.933 0 18.015 8.695 18.015 19.386v293.204H15.613V88.687c0-10.69 8.07-19.386 17.989-19.386zm348.671 411.523v16.063H109.73v-16.063c0-8.855 7.204-16.058 16.06-16.058h240.425c8.855 0 16.058 7.203 16.058 16.058zm-47.25-31.176H154.375l6.313-17.699H328.69zm131.348-32.812H33.601c-9.917 0-17.988-8.7-17.988-19.39v-.442h468.774v.441c0 10.692-8.082 19.39-18.016 19.39zm0 0"/></svg><svg viewBox="0 0 512 512" id="resume" xmlns="http://www.w3.org/2000/svg"><g data-name="Resume"><path d="M496 376h-32V192a24.027 24.027 0 0 0-24-24h-48V72a8 8 0 0 0-8-8H128a8 8 0 0 0-8 8v96H72a24.027 24.027 0 0 0-24 24v184H16a8 8 0 0 0-8 8v16a40.045 40.045 0 0 0 40 40h416a40.045 40.045 0 0 0 40-40v-16a8 8 0 0 0-8-8zM392 208h32v144h-32zM136 80h240v272H136zM64 192a8.009 8.009 0 0 1 8-8h48v8H80a8 8 0 0 0-8 8v160a8 8 0 0 0 8 8h352a8 8 0 0 0 8-8V200a8 8 0 0 0-8-8h-40v-8h48a8.009 8.009 0 0 1 8 8v184H64zm56 16v144H88V208zm172.9 184-2.666 8h-68.468l-2.666-8zm195.1 8a24.027 24.027 0 0 1-24 24H48a24.027 24.027 0 0 1-24-24v-8h178.234l6.177 18.53A8 8 0 0 0 216 416h80a8 8 0 0 0 7.589-5.47l6.177-18.53H488z"/><path d="M213.21 215.544a8.1 8.1 0 0 0 1.063.922 63.809 63.809 0 0 0 83.4.047 8.048 8.048 0 0 0 1.194-1.034 64 64 0 1 0-85.656.065zm13.476-9.574c0-.212-.019-.427-.019-.637a29.333 29.333 0 0 1 58.666 0c0 .21-.015.425-.019.637a47.852 47.852 0 0 1-58.628 0zm18.647-56.637A10.667 10.667 0 1 1 256 160a10.679 10.679 0 0 1-10.667-10.667zM256 120a47.966 47.966 0 0 1 42.651 69.978 45.575 45.575 0 0 0-21.336-24.64 26.667 26.667 0 1 0-42.63 0 45.575 45.575 0 0 0-21.336 24.64A47.966 47.966 0 0 1 256 120zm80 128H176a8 8 0 0 0 0 16h160a8 8 0 0 0 0-16zm-32 32H176a8 8 0 0 0 0 16h128a8 8 0 0 0 0-16zM96 400H56a8 8 0 0 0 0 16h40a8 8 0 0 0 0-16zm32 0h-8a8 8 0 0 0 0 16h8a8 8 0 0 0 0-16z"/></g></svg><svg viewBox="0 0 32 32" xml:space="preserve" id="search" xmlns="http://www.w3.org/2000/svg"><path d="m27.414 24.586-5.077-5.077A9.932 9.932 0 0 0 24 14c0-5.514-4.486-10-10-10S4 8.486 4 14s4.486 10 10 10a9.932 9.932 0 0 0 5.509-1.663l5.077 5.077a2 2 0 1 0 2.828-2.828zM7 14c0-3.86 3.14-7 7-7s7 3.14 7 7-3.14 7-7 7-7-3.14-7-7z"/></svg><svg viewBox="0 0 24 25" id="show" xmlns="http://www.w3.org/2000/svg"><path fill="#005792" d="M11.857 19.258c6.417 0 10.85-5.186 10.85-6.807 0-1.628-4.44-6.806-10.85-6.806C5.527 5.645 1 10.823 1 12.45c0 1.62 4.52 6.807 10.857 6.807Zm0-1.255c-5.234 0-9.467-4.432-9.467-5.552 0-.945 4.233-5.551 9.467-5.551 5.21 0 9.46 4.606 9.46 5.551 0 1.12-4.25 5.552-9.46 5.552Zm0-1.112a4.454 4.454 0 0 0 4.456-4.456 4.46 4.46 0 0 0-8.92 0 4.46 4.46 0 0 0 4.464 4.456Zm0-2.97c-.818 0-1.477-.66-1.477-1.478s.659-1.477 1.477-1.477c.818 0 1.477.66 1.477 1.477 0 .818-.659 1.478-1.477 1.478Z"/></svg><svg viewBox="0 0 60 60" id="smartphone" xmlns="http://www.w3.org/2000/svg"><path d="M20 49c-2.206 0-4 1.794-4 4s1.794 4 4 4 4-1.794 4-4-1.794-4-4-4zm0 6c-1.103 0-2-.897-2-2s.897-2 2-2 2 .897 2 2-.897 2-2 2zM17 5h4a1 1 0 1 0 0-2h-4a1 1 0 1 0 0 2zm7 0h1a1 1 0 1 0 0-2h-1a1 1 0 1 0 0 2z"/><path d="M56 12H38V4.405A4.41 4.41 0 0 0 33.595 0H8.405A4.41 4.41 0 0 0 4 4.405v51.189A4.41 4.41 0 0 0 8.405 60h25.189A4.41 4.41 0 0 0 38 55.595V33h18V12zM8.405 2h25.189A2.408 2.408 0 0 1 36 4.405V6H6V4.405A2.408 2.408 0 0 1 8.405 2zm25.19 56H8.405A2.408 2.408 0 0 1 6 55.595V48h30v7.595A2.408 2.408 0 0 1 33.595 58zM36 46H6V8h30v4H18v21h4v7l9.333-7H36v13zm18-15H30.667L24 36v-5h-4V14h34v17z"/><path d="M25 21h10a1 1 0 1 0 0-2H25a1 1 0 1 0 0 2zm-1 4a1 1 0 0 0 1 1h24a1 1 0 1 0 0-2H25a1 1 0 0 0-1 1z"/></svg><svg viewBox="0 0 24 24" id="sort" xmlns="http://www.w3.org/2000/svg"><path fill="none" d="M0 0h24v24H0z"/><path d="M20 4v12h3l-4 5-4-5h3V4h2zm-8 14v2H3v-2h9zm2-7v2H3v-2h11zm0-7v2H3V4h11z"/></svg><svg viewBox="0 0 60 60" id="stopwatch" xmlns="http://www.w3.org/2000/svg"><path d="M31.634 37.989a3.558 3.558 0 0 0 2.606-1.459l9.363-12.944a1 1 0 0 0-1.397-1.397L29.26 31.555c-.844.614-1.375 1.563-1.456 2.604s.296 2.06 1.033 2.797a3.554 3.554 0 0 0 2.797 1.033zm-1.836-3.674a1.56 1.56 0 0 1 .637-1.142l7.897-5.713-5.711 7.895a1.565 1.565 0 0 1-2.371.187 1.564 1.564 0 0 1-.452-1.227z"/><path d="M54.034 19.564c-.01-.021-.01-.043-.021-.064-.012-.02-.031-.031-.044-.05a27.185 27.185 0 0 0-3.565-4.809l2.148-2.147 1.414 1.414 4.242-4.243-4.242-4.242-4.243 4.242 1.415 1.415-2.148 2.147a27.154 27.154 0 0 0-4.809-3.566c-.019-.013-.03-.032-.05-.044-.021-.012-.043-.011-.064-.022a26.81 26.81 0 0 0-10.273-3.404V5h1.5c1.379 0 2.5-1.121 2.5-2.5S36.672 0 35.293 0h-9c-1.379 0-2.5 1.121-2.5 2.5s1.121 2.5 2.5 2.5h1.5v1.156c-1.08.115-2.158.291-3.224.535a1 1 0 1 0 .447 1.949 25.43 25.43 0 0 1 2.78-.477l1.073-.083c.328-.025.63-.043.924-.057V10a1 1 0 1 0 2 0V8.03a24.805 24.805 0 0 1 10.456 2.845l-.986 1.707a1 1 0 0 0 1.732 1l.983-1.703a25.194 25.194 0 0 1 7.772 7.772l-1.703.983a1 1 0 0 0 1.002 1.732l1.707-.986a24.82 24.82 0 0 1 2.849 10.619H53.63a1 1 0 1 0 0 2h1.975a24.82 24.82 0 0 1-2.849 10.619l-1.707-.986a1 1 0 0 0-1 1.732l1.703.983a25.194 25.194 0 0 1-7.772 7.772l-.983-1.703a.998.998 0 0 0-1.366-.366.999.999 0 0 0-.366 1.366l.986 1.707a24.805 24.805 0 0 1-10.456 2.845V56a1 1 0 1 0-2 0v1.976a25.235 25.235 0 0 1-4.776-.617.996.996 0 0 0-1.198.751 1 1 0 0 0 .751 1.198c1.996.46 4.035.692 6.058.692.049 0 .096-.003.145-.004.007 0 .012.004.018.004.008 0 .015-.005.023-.005a26.825 26.825 0 0 0 13.219-3.573c.031-.014.064-.021.094-.039.02-.012.031-.031.05-.044a27.197 27.197 0 0 0 9.773-9.761c.019-.027.043-.048.06-.078.012-.021.011-.043.021-.064C56.317 42.476 57.63 37.89 57.63 33s-1.313-9.476-3.596-13.436zm-.069-11.313 1.414 1.414-1.414 1.415-1.415-1.415 1.415-1.414zm-24.172-2.23V3h-3.5c-.275 0-.5-.225-.5-.5s.225-.5.5-.5h9c.275 0 .5.225.5.5s-.225.5-.5.5h-3.5v3.021c-.348-.014-.68-.021-1-.021l-.088.002L30.63 6c-.164 0-.328.011-.492.014-.116.003-.225.002-.345.007zm-8 7.979h-5a1 1 0 1 0 0 2h5a1 1 0 1 0 0-2zm0 7h-10a1 1 0 1 0 0 2h10a1 1 0 1 0 0-2zm0 7h-15a1 1 0 1 0 0 2h15a1 1 0 1 0 0-2zm0 7h-19a1 1 0 1 0 0 2h19a1 1 0 1 0 0-2zm0 7h-13a1 1 0 1 0 0 2h13a1 1 0 1 0 0-2zm0 7h-7a1 1 0 1 0 0 2h7a1 1 0 1 0 0-2z"/></svg><svg viewBox="0 0 512 512" id="support" xmlns="http://www.w3.org/2000/svg"><path d="M255.107 65.06c5.562 0 10.071-4.509 10.071-10.071V10.071C265.178 4.509 260.669 0 255.107 0s-10.071 4.509-10.071 10.071v44.918c.001 5.562 4.51 10.071 10.071 10.071zM501.28 345.985l-17.791-17.741c-6.329-6.321-14.764-9.803-23.752-9.803-5.747 0-11.264 1.43-16.153 4.109l-33.526-33.486 1.633-1.631c13.601-13.628 13.596-35.773-.001-49.355a34.57 34.57 0 0 0-17.531-9.48 35.171 35.171 0 0 0 1.389-9.798c0-9.355-3.634-18.127-10.212-24.678a34.575 34.575 0 0 0-17.531-9.48 35.166 35.166 0 0 0 1.389-9.798c0-9.356-3.634-18.127-10.223-24.688a34.735 34.735 0 0 0-17.516-9.455c3.436-11.847.5-25.176-8.82-34.512-7.758-7.725-18.285-11.045-28.43-9.969L237.77 83.645c-10.132-1.922-22.785-3.193-30.772 4.092-.504.46-1.018.989-1.524 1.578-12.384-4.514-26.828-1.826-36.745 8.08-6.579 6.571-10.203 15.339-10.203 24.689 0 3.368.477 6.657 1.386 9.799a34.52 34.52 0 0 0-17.5 9.459c-6.592 6.565-10.227 15.323-10.234 24.662a35.112 35.112 0 0 0 1.39 9.826 34.596 34.596 0 0 0-17.522 9.45c-6.592 6.585-10.222 15.358-10.222 24.703 0 7.158 2.137 13.977 6.097 19.737a34.71 34.71 0 0 0-13.415 8.347c-13.61 13.593-13.615 35.739.009 49.387l1.627 1.62-33.53 33.469c-12.461-5.867-27.814-3.669-38.097 6.601l-17.802 17.752C4.381 353.22.895 361.656.894 370.649c0 8.994 3.487 17.431 9.819 23.756l22.217 22.19c3.935 3.931 10.312 3.927 14.242-.008 3.931-3.935 3.927-10.312-.008-14.242l-22.217-22.19c-2.522-2.519-3.911-5.895-3.911-9.505 0-3.609 1.389-6.984 3.905-9.497L42.744 343.4c4.448-4.443 11.256-5.105 16.426-2.014a10.023 10.023 0 0 0 4.161 3.563l102.093 101.943a10.04 10.04 0 0 0 2.02 2.922 10.024 10.024 0 0 0 2.835 1.984 13.325 13.325 0 0 1 3.352 8.885c0 3.61-1.389 6.985-3.911 9.504l-17.785 17.764c-5.255 5.232-13.803 5.231-19.042.016l-22.217-22.219c-3.933-3.933-10.309-3.933-14.242 0s-3.933 10.309 0 14.242l22.233 22.235c6.544 6.517 15.138 9.774 23.736 9.774 8.6 0 17.204-3.262 23.756-9.785l17.796-17.775c6.332-6.325 9.819-14.761 9.819-23.756 0-6.419-1.785-12.549-5.104-17.835l37.736-37.69.121-.123c4.321-4.467 16.354-3.631 27.991-2.823 8.268.575 17.486 1.214 26.492.176l41.324 41.275c-2.677 4.881-4.106 10.391-4.106 16.129 0 8.985 3.487 17.416 9.819 23.741l17.797 17.775c6.328 6.321 14.763 9.803 23.751 9.803 8.987 0 17.422-3.481 23.751-9.803l107.941-107.81c6.332-6.324 9.819-14.76 9.819-23.754-.001-8.993-3.488-17.429-9.826-23.759zm-267.26-242.55 43.687 8.269-26.149 26.139c-4.045-1.944-9.589-5.57-15.671-11.388-8.325-7.964-14.28-17.159-14.822-22.894l-.001-.009-.001-.003a8.798 8.798 0 0 1-.044-.992c1.317-.32 4.815-.675 13.001.878zm-51.058 8.211c5.102-5.097 13.028-5.685 18.793-1.781 3.267 13.698 14.952 26.113 20.209 31.143 3.896 3.728 16.397 14.905 29.015 17.977a14.685 14.685 0 0 1 2.636 8.442c0 3.965-1.525 7.672-4.304 10.448-2.771 2.776-6.484 4.304-10.456 4.304-3.973 0-7.686-1.528-10.47-4.317l-.001-.001-.005-.005-45.418-45.336c-2.769-2.765-4.294-6.472-4.294-10.436.001-3.965 1.526-7.672 4.295-10.438zm-26.316 43.947c2.771-2.775 6.48-4.304 10.446-4.304 3.971 0 7.692 1.532 10.481 4.318l36.572 36.499c5.759 5.768 5.759 15.154.02 20.902-2.786 2.775-6.512 4.303-10.491 4.303s-7.705-1.528-10.479-4.291l-.001-.001-27.745-27.739c-.043-.043-.09-.083-.134-.127l-8.68-8.676c-2.785-2.782-4.318-6.496-4.315-10.458.004-3.949 1.532-7.644 4.326-10.426zm-26.366 43.938c2.773-2.769 6.49-4.294 10.468-4.294 3.945 0 7.63 1.503 10.391 4.224l27.83 27.817c2.775 2.764 4.304 6.467 4.304 10.427 0 3.959-1.529 7.662-4.315 10.437-2.772 2.768-6.485 4.293-10.456 4.293-3.977 0-7.702-1.529-10.478-4.293l-10.089-10.077-.007-.007-17.647-17.626c-2.782-2.779-4.314-6.491-4.314-10.451 0-3.959 1.532-7.672 4.313-10.45zm-17.54 52.786c2.785-2.782 6.507-4.314 10.48-4.314 3.972 0 7.693 1.531 10.477 4.311l10.103 10.091c2.776 2.764 4.304 6.467 4.304 10.427s-1.529 7.662-4.325 10.448c-2.771 2.775-6.484 4.304-10.456 4.304-3.973 0-7.686-1.528-10.477-4.324l-1.265-1.26c-.017-.017-.03-.035-.046-.051l-.058-.052-8.727-8.693c-5.759-5.771-5.764-15.14-.01-20.887zm205.234 114.458c-3.931-3.936-10.308-3.939-14.242-.009l-8.96 8.949c-8.514 8.514-23.941 7.442-38.86 6.407-16.201-1.126-32.954-2.288-43.795 8.842l-37.095 37.05-92.763-92.627 32.828-32.769c5.426 3.326 11.687 5.109 18.238 5.109 9.359 0 18.135-3.628 24.69-10.195 6.599-6.572 10.234-15.343 10.234-24.699 0-.087-.006-.173-.006-.26.087.001.174.006.261.006 9.346 0 18.115-3.617 24.679-10.173 6.599-6.572 10.234-15.344 10.234-24.699 0-.087-.006-.173-.006-.26.088 0 .176.006.265.006 9.343 0 18.117-3.613 24.725-10.194 6.86-6.871 10.253-15.917 10.188-24.944.09.001.18.006.27.006 9.359-.001 18.134-3.628 24.699-10.205 6.579-6.571 10.203-15.339 10.203-24.689 0-6.539-1.778-12.79-5.093-18.205l28.773-28.761a14.775 14.775 0 0 1 7.559-4.028c.3-.032.596-.08.889-.138 4.446-.613 9.115.759 12.515 4.145 5.759 5.769 5.759 15.155.021 20.903l-8.763 8.727c-.029.029-.06.055-.089.084L299.48 160.23c-3.936 3.93-3.94 10.307-.009 14.242 3.932 3.936 10.308 3.939 14.242.009l8.798-8.786.006-.006 1.33-1.325c5.775-5.722 15.131-5.71 20.9.051 2.776 2.764 4.305 6.467 4.305 10.427 0 3.959-1.529 7.662-4.327 10.448l-8.813 8.831-.003.004-10.092 10.051c-3.941 3.925-3.954 10.302-.029 14.242 3.925 3.941 10.301 3.953 14.242.029l10.138-10.097c2.771-2.776 6.484-4.304 10.456-4.304 3.973 0 7.687 1.528 10.478 4.324 2.776 2.765 4.304 6.468 4.304 10.428 0 3.959-1.528 7.662-4.32 10.442l-17.57 17.577c-3.932 3.934-3.931 10.31.002 14.242a10.038 10.038 0 0 0 7.12 2.948c2.578 0 5.156-.984 7.122-2.951l8.611-8.614c.049-.047.102-.088.151-.137 2.771-2.776 6.484-4.304 10.456-4.304 3.973 0 7.686 1.528 10.467 4.314 5.753 5.747 5.748 15.117 0 20.875l-8.755 8.745-.01.009-.009.01-13.896 13.879c-3.935 3.931-3.939 10.308-.009 14.243a10.042 10.042 0 0 0 7.126 2.954c2.575 0 5.151-.982 7.117-2.945l6.797-6.789 32.577 32.539-92.755 92.642-33.234-33.194a39.602 39.602 0 0 0 6.615-5.323l8.955-8.944c3.937-3.929 3.941-10.306.01-14.241zm169.078 12.472-107.941 107.81c-2.525 2.522-5.905 3.911-9.517 3.911s-6.992-1.389-9.518-3.912l-17.797-17.775c-2.522-2.518-3.911-5.888-3.911-9.489 0-3.6 1.389-6.97 3.911-9.489l107.941-107.81c2.526-2.523 5.905-3.912 9.518-3.912 3.612 0 6.992 1.389 9.524 3.918l17.791 17.741c2.522 2.519 3.911 5.893 3.911 9.503-.001 3.611-1.39 6.986-3.912 9.504zM121.378 56.57a10.039 10.039 0 0 0 7.114 2.942c2.58 0 5.161-.986 7.128-2.957 3.929-3.937 3.923-10.313-.014-14.242L98.908 5.688c-3.936-3.929-10.313-3.924-14.242.014-3.929 3.937-3.923 10.313.014 14.242zm260.344 2.942c2.575 0 5.151-.982 7.117-2.945l36.67-36.626c3.935-3.93 3.939-10.307.008-14.242-3.93-3.935-10.306-3.939-14.242-.008l-36.67 36.626c-3.935 3.93-3.939 10.307-.008 14.242a10.039 10.039 0 0 0 7.125 2.953z"/><path d="M62.819 433.204c-3.899 3.966-3.845 10.343.122 14.242l.029.028a10.005 10.005 0 0 0 7.038 2.882c2.607 0 5.214-1.009 7.189-3.018 3.899-3.966 3.83-10.357-.136-14.256-3.965-3.899-10.341-3.844-14.242.122zm279.787-80.937c1.532 0 3.086-.349 4.545-1.084 4.966-2.505 6.961-8.561 4.457-13.527-2.505-4.966-8.562-6.962-13.527-4.457l-.056.028c-4.966 2.505-6.933 8.547-4.429 13.513 1.768 3.508 5.324 5.527 9.01 5.527z"/></svg><svg viewBox="0 0 24 24" id="telegram" xmlns="http://www.w3.org/2000/svg"><circle cx="12" cy="12" fill="#039be5" r="12"/><path d="m5.491 11.74 11.57-4.461c.537-.194 1.006.131.832.943l.001-.001-1.97 9.281c-.146.658-.537.818-1.084.508l-3-2.211-1.447 1.394c-.16.16-.295.295-.605.295l.213-3.053 5.56-5.023c.242-.213-.054-.333-.373-.121l-6.871 4.326-2.962-.924c-.643-.204-.657-.643.136-.953z" fill="#fff"/></svg><svg viewBox="0 0 512 512" id="telegramm" xmlns="http://www.w3.org/2000/svg"><path d="m385.268 121.919-210.569 129.69c-11.916 7.356-17.555 21.885-13.716 35.323l22.768 80c1.945 6.821 8.015 11.355 14.999 11.355.389 0 .782-.014 1.176-.043 7.466-.542 13.374-6.103 14.367-13.515l5.92-43.866a25.915 25.915 0 0 1 8.001-15.45l173.765-161.524a13.817 13.817 0 0 0 1.618-18.545 13.836 13.836 0 0 0-18.329-3.425zM214.32 290.478a46.364 46.364 0 0 0-14.323 27.655l-2.871 21.278-16.527-58.072c-1.343-4.704.635-9.791 4.805-12.365l154.258-95.007L214.32 290.478z"/><path d="M503.67 37.382a23.52 23.52 0 0 0-23.698-4.005L15.08 212.719C5.873 216.27-.047 224.939 0 234.804c.048 9.874 6.055 18.495 15.316 21.965l108.59 40.529 42.359 136.225a23.517 23.517 0 0 0 15.703 15.566 23.49 23.49 0 0 0 21.66-4.31l63.14-51.473a8.642 8.642 0 0 1 10.528-.295l113.883 82.681a23.476 23.476 0 0 0 13.823 4.511 23.6 23.6 0 0 0 8.517-1.596c7.486-2.895 12.93-9.312 14.56-17.163l83.429-401.309a23.547 23.547 0 0 0-7.838-22.753zM491.536 55.99l-83.428 401.308c-.302 1.45-1.346 2.053-1.942 2.284-.6.232-1.785.489-2.997-.393l-113.887-82.685a28.982 28.982 0 0 0-17.052-5.531 29.013 29.013 0 0 0-18.347 6.519l-63.154 51.485c-1.124.92-2.291.756-2.885.577-.598-.18-1.665-.69-2.099-2.086L141.9 286.462a10.203 10.203 0 0 0-6.173-6.527L22.462 237.662c-1.696-.635-2.057-1.958-2.062-2.957-.005-.99.343-2.307 2.023-2.955L487.316 52.409l.008-.003c1.51-.583 2.627.087 3.159.537.534.455 1.384 1.455 1.053 3.047z"/><path d="M427.481 252.142c-5.506-1.196-10.936 2.299-12.131 7.804l-1.55 7.14c-1.195 5.505 2.299 10.936 7.804 12.131a10.25 10.25 0 0 0 2.174.234c4.695 0 8.92-3.262 9.958-8.037l1.55-7.14c1.194-5.505-2.301-10.936-7.805-12.132zm-10.2 46.98c-5.512-1.195-10.938 2.299-12.132 7.804L381.69 414.977c-1.195 5.505 2.299 10.936 7.803 12.131.73.158 1.457.234 2.174.234 4.696 0 8.92-3.262 9.958-8.037l23.459-108.052c1.195-5.505-2.299-10.936-7.803-12.131z"/></svg><svg viewBox="0 0 24 24" id="time" xmlns="http://www.w3.org/2000/svg"><path fill="#005792" d="M23 12c0 6.075-4.925 11-11 11S1 18.075 1 12 5.925 1 12 1s11 4.925 11 11ZM3.007 12a8.993 8.993 0 1 0 17.986 0 8.993 8.993 0 0 0-17.986 0Z"/><path fill="#005792" d="M12 5a1 1 0 0 0-1 1v6.467s0 .26.127.457a.99.99 0 0 0 .39.41l4.62 2.668a1 1 0 0 0 1-1.732L13 11.88V6a1 1 0 0 0-1-1Z"/></svg><svg viewBox="0 0 64 64" id="tools" xmlns="http://www.w3.org/2000/svg"><path d="m19.223 14.981 33.626 33.625h2.823L20.64 13.564zM9.32 16.393l7.07-7.07 2.828 2.828-7.07 7.07zm26.931 9.964c.017-.02.023-.045.042-.064l4-4a1 1 0 0 1 1.414 1.414l-4 4c-.019.019-.044.025-.064.042l2.837 2.837 2.42-2.423a5.061 5.061 0 0 1 4.1-1.5 11.011 11.011 0 0 0 12.218-11.977l-6 6a1 1 0 0 1-.905.273l-7.069-1.419a1 1 0 0 1-.783-.784l-1.421-7.069a1 1 0 0 1 .273-.905l6-6A11.011 11.011 0 0 0 37.333 17a5.057 5.057 0 0 1-1.5 4.1l-2.419 2.42zm-8.502 11.287c-.017.019-.023.044-.042.063l-4 4a1 1 0 0 1-1.414-1.414l4-4c.019-.019.044-.025.063-.042l-2.836-2.837-2.42 2.423a5.047 5.047 0 0 1-4.1 1.5A11.011 11.011 0 0 0 4.782 49.314l6-6a1 1 0 0 1 .9-.273l7.07 1.419a1 1 0 0 1 .783.784l1.421 7.069a1 1 0 0 1-.274.905l-6 6A11.011 11.011 0 0 0 26.667 47a5.057 5.057 0 0 1 1.5-4.1l2.423-2.423zM9.322 4.322a5 5 0 0 0-3.535 8.536l2.121 2.121 7.071-7.071-2.121-2.121a4.965 4.965 0 0 0-3.536-1.465zm48.947 50.126-.961-3.842h-3.654l.469 2.34a1 1 0 0 1-1.177 1.177l-2.34-.468v3.653l3.843.962a6.926 6.926 0 0 1 3.82-3.822zm.495 1.976a4.779 4.779 0 0 0-2.34 2.34l3.121.781zm-6.897-4.557-.354-1.768-33.704-33.704-1.414 1.414 33.704 33.705zm-3.261.982L14.981 19.223l-1.417 1.417 35.042 35.032z"/></svg><svg viewBox="0 0 349.757 349.756" id="up-arrow" xmlns="http://www.w3.org/2000/svg"><path d="M298.055 147.199c0 2.787-1.267 9.271-13.036 9.271h-54.037v178.856c.072.48.144 1.159.144 1.939 0 3.177-1.207 6.106-3.416 8.269-2.858 2.798-7.224 4.222-12.988 4.222h-83.056c-11.493 0-14.525-8.149-14.525-12.454V160.236H67.606c-13.841 0-15.904-6.594-15.904-10.521 0-6.293 5.996-12.577 7.197-13.775 3.176-4.305 89.036-118.195 101.529-130.718 4.558-4.534 9.131-5.339 12.163-5.209 7.293.3 12.268 5.915 12.808 6.56l104.838 126.674c1.513 1.384 7.818 7.821 7.818 13.952z"/></svg><svg viewBox="0 0 112.196 112.196" id="vk" xmlns="http://www.w3.org/2000/svg"><circle cx="56.098" cy="56.098" r="56.098" fill="#4d76a1"/><path d="M53.979 80.702h4.403s1.33-.146 2.009-.878c.625-.672.605-1.934.605-1.934s-.086-5.908 2.656-6.778c2.703-.857 6.174 5.71 9.853 8.235 2.782 1.911 4.896 1.492 4.896 1.492l9.837-.137s5.146-.317 2.706-4.363c-.2-.331-1.421-2.993-7.314-8.463-6.168-5.725-5.342-4.799 2.088-14.702 4.525-6.031 6.334-9.713 5.769-11.29-.539-1.502-3.867-1.105-3.867-1.105l-11.076.069s-.821-.112-1.43.252c-.595.357-.978 1.189-.978 1.189s-1.753 4.667-4.091 8.636c-4.932 8.375-6.904 8.817-7.71 8.297-1.875-1.212-1.407-4.869-1.407-7.467 0-8.116 1.231-11.5-2.397-12.376-1.204-.291-2.09-.483-5.169-.514-3.952-.041-7.297.012-9.191.94-1.26.617-2.232 1.992-1.64 2.071.732.098 2.39.447 3.269 1.644 1.135 1.544 1.095 5.012 1.095 5.012s.652 9.554-1.523 10.741c-1.493.814-3.541-.848-7.938-8.446-2.253-3.892-3.954-8.194-3.954-8.194s-.328-.804-.913-1.234c-.71-.521-1.702-.687-1.702-.687l-10.525.069s-1.58.044-2.16.731c-.516.611-.041 1.875-.041 1.875s8.24 19.278 17.57 28.993c8.555 8.907 18.27 8.322 18.27 8.322z" fill-rule="evenodd" clip-rule="evenodd" fill="#fff"/></svg><svg viewBox="0 0 24 25" id="wand" xmlns="http://www.w3.org/2000/svg"><path fill="#232323" d="M19.705 21.934c.45.44 1.153.44 1.553 0 .42-.439.44-1.103-.01-1.542l-9.307-9.317c-.439-.43-1.142-.43-1.552 0-.42.44-.43 1.113.01 1.553l9.306 9.306Zm-5.781-6.845-2.91-2.92a.33.33 0 0 1 0-.479.339.339 0 0 1 .478 0l2.92 2.92-.488.479Zm7.441-1.836c.469 0 .86-.39.86-.85a.866.866 0 0 0-.86-.85h-3.007c-.46 0-.85.391-.85.85 0 .46.39.85.85.85h3.007Zm-5.547-6.045a.849.849 0 0 0 0 1.201.88.88 0 0 0 1.211 0l2.12-2.129a.86.86 0 0 0 0-1.21.855.855 0 0 0-1.192 0l-2.139 2.138Zm-3.144-4.355c0-.46-.39-.85-.86-.85-.459 0-.85.39-.85.85V5.86c0 .47.391.86.85.86.47 0 .86-.39.86-.86V2.853ZM6.61 8.41a.867.867 0 0 0 1.2 0 .867.867 0 0 0 0-1.202L5.692 5.079a.867.867 0 0 0-1.2-.01.867.867 0 0 0 0 1.202L6.61 8.409Zm-4.346 3.144c-.46 0-.85.39-.85.85 0 .458.39.849.85.849H5.29c.459 0 .85-.39.85-.85a.864.864 0 0 0-.85-.85H2.264Zm2.216 6.972a.877.877 0 0 0-.01 1.201.88.88 0 0 0 1.212.01l2.129-2.129a.855.855 0 0 0 0-1.191c-.313-.332-.88-.332-1.202 0l-2.129 2.11Zm8.194.43c0-.469-.39-.86-.86-.86a.866.866 0 0 0-.85.86v3.008c0 .459.391.85.85.85.47 0 .86-.391.86-.85v-3.008Z"/></svg><svg xml:space="preserve" style="enable-background:new 0 0 100 100" viewBox="0 0 100 100" id="webpages" xmlns="http://www.w3.org/2000/svg"><path d="M92 4H32c-2.2 0-4 1.8-4 4v4h-4c-2.2 0-4 1.8-4 4v4h-4c-2.2 0-4 1.8-4 4v4H8c-2.2 0-4 1.8-4 4v60c0 2.2 1.8 4 4 4h60c2.2 0 4-1.8 4-4v-4h4c2.2 0 4-1.8 4-4v-4h4c2.2 0 4-1.8 4-4v-4h4c2.2 0 4-1.8 4-4V8c0-2.2-1.8-4-4-4zM30 8c0-1.1.9-2 2-2h60c1.1 0 2 .9 2 2v6h-6.6c-.7-1.2-2-2-3.4-2H30V8zm-8 8c0-1.1.9-2 2-2h60c1.1 0 2 .9 2 2v6h-6.6c-.7-1.2-2-2-3.4-2H22v-4zm-8 8c0-1.1.9-2 2-2h60c1.1 0 2 .9 2 2v6h-6.6c-.7-1.2-2-2-3.4-2H14v-4zm-6 6h60c1.1 0 2 .9 2 2v6H6v-6c0-1.1.9-2 2-2zm62 62c0 1.1-.9 2-2 2H8c-1.1 0-2-.9-2-2V40h64v52zm8-8c0 1.1-.9 2-2 2h-4V32h6v52zm8-8c0 1.1-.9 2-2 2h-4V24h6v52zm6-6h-4V16h6v52c0 1.1-.9 2-2 2z"/><circle cx="53" cy="34" r="2"/><circle cx="59" cy="34" r="2"/><circle cx="65" cy="34" r="2"/><circle cx="61" cy="26" r="2"/><circle cx="67" cy="26" r="2"/><circle cx="73" cy="26" r="2"/><circle cx="69" cy="18" r="2"/><circle cx="75" cy="18" r="2"/><circle cx="81" cy="18" r="2"/><circle cx="77" cy="10" r="2"/><circle cx="83" cy="10" r="2"/><circle cx="89" cy="10" r="2"/><path d="M12 55h52c1.7 0 3-1.3 3-3v-6c0-1.7-1.3-3-3-3H12c-1.7 0-3 1.3-3 3v6c0 1.7 1.3 3 3 3zm-1-9c0-.6.4-1 1-1h52c.6 0 1 .4 1 1v6c0 .6-.4 1-1 1H12c-.6 0-1-.4-1-1v-6zm25 23H12c-1.7 0-3 1.3-3 3v16c0 1.7 1.3 3 3 3h24c1.7 0 3-1.3 3-3V72c0-1.7-1.3-3-3-3zm1 19c0 .6-.4 1-1 1H12c-.6 0-1-.4-1-1V72c0-.6.4-1 1-1h24c.6 0 1 .4 1 1v16zm30-24H11c-.6 0-1 .4-1 1s.4 1 1 1h56c.6 0 1-.4 1-1s-.4-1-1-1zm0-5H11c-.6 0-1 .4-1 1s.4 1 1 1h56c.6 0 1-.4 1-1s-.4-1-1-1zm-1 10H43c-.6 0-1 .4-1 1s.4 1 1 1h23c.6 0 1-.4 1-1s-.4-1-1-1zm0 5H43c-.6 0-1 .4-1 1s.4 1 1 1h23c.6 0 1-.4 1-1s-.4-1-1-1zm0 5H43c-.6 0-1 .4-1 1s.4 1 1 1h23c.6 0 1-.4 1-1s-.4-1-1-1zm0 5H43c-.6 0-1 .4-1 1s.4 1 1 1h23c.6 0 1-.4 1-1s-.4-1-1-1zm0 5H43c-.6 0-1 .4-1 1s.4 1 1 1h23c.6 0 1-.4 1-1s-.4-1-1-1z"/></svg><svg viewBox="0 0 24 24" id="whatsapp" xmlns="http://www.w3.org/2000/svg"><path d="M20.52 3.449C18.24 1.245 15.24 0 12.045 0 2.875 0-2.883 9.935 1.696 17.838L0 24l6.335-1.652c2.76 1.491 5.021 1.359 5.716 1.447 10.633 0 15.926-12.864 8.454-20.307z" fill="#eceff1"/><path d="m12.067 21.751-.006-.001h-.016c-3.182 0-5.215-1.507-5.415-1.594l-3.75.975 1.005-3.645-.239-.375a9.869 9.869 0 0 1-1.516-5.26c0-8.793 10.745-13.19 16.963-6.975 6.203 6.15 1.848 16.875-7.026 16.875z" fill="#4caf50"/><path d="m17.507 14.307-.009.075c-.301-.15-1.767-.867-2.04-.966-.613-.227-.44-.036-1.617 1.312-.175.195-.349.21-.646.075-.3-.15-1.263-.465-2.403-1.485-.888-.795-1.484-1.77-1.66-2.07-.293-.506.32-.578.878-1.634.1-.21.049-.375-.025-.524-.075-.15-.672-1.62-.922-2.206-.24-.584-.487-.51-.672-.51-.576-.05-.997-.042-1.368.344-1.614 1.774-1.207 3.604.174 5.55 2.714 3.552 4.16 4.206 6.804 5.114.714.227 1.365.195 1.88.121.574-.091 1.767-.721 2.016-1.426.255-.705.255-1.29.18-1.425-.074-.135-.27-.21-.57-.345z" fill="#fafafa"/></svg><svg viewBox="0 0 340.731 340.731" id="writing" xmlns="http://www.w3.org/2000/svg"><path d="M332.41 9.683c-10.738-10.754-29.482-10.746-40.236 0L129.326 172.531c-1.674 1.666-6.113 6.105-9.063 40.488l-.829 9.649 9.64-.845c34.457-3.032 38.822-7.397 40.472-9.039L332.402 49.92c11.103-11.104 11.103-29.149.008-40.237zm-11.494 28.735L158.621 200.721c-2.845 1.211-11.762 2.723-21.134 3.877 1.122-9.356 2.634-18.273 3.869-21.102L303.692 21.169c4.601-4.601 12.624-4.601 17.241 0 4.73 4.755 4.73 12.493-.017 17.249z"/><path d="M315.795 322.853H16.257V23.307h239.297L271.811 7.05H8.129A8.13 8.13 0 0 0 0 15.178v315.803a8.127 8.127 0 0 0 8.129 8.129h315.795a8.121 8.121 0 0 0 8.129-8.129V73.257l-16.257 16.257-.001 233.339z"/></svg><svg viewBox="0 0 64 64" id="writing-list" xmlns="http://www.w3.org/2000/svg"><path d="m11.842 20.425 29.042-.004a1 1 0 0 0 0-2l-29.042.004a1 1 0 0 0 0 2zm21.918 5.464H11.841a1 1 0 0 0 0 2h21.917a1 1 0 0 0 0-2zm0 7.304H11.841a1 1 0 0 0 0 2h21.917a1 1 0 0 0 0-2zm.016 7.309H11.842a1 1 0 0 0 0 2h21.934a1 1 0 0 0 0-2zm-.38 8.189-8.383.004a1 1 0 0 0 0 2l8.383-.004a1 1 0 0 0 0-2z"/><path d="m61.352 12.082-2.228-1.21a3.123 3.123 0 0 0-2.402-.251c-.81.24-1.477.778-1.88 1.519l-4.36 8.027V5.884a4.11 4.11 0 0 0-4.105-4.105H9.533a1.11 1.11 0 0 0-.723.291L1.298 9.537A1.092 1.092 0 0 0 1 10.25v47.866a4.11 4.11 0 0 0 4.104 4.105h41.273a4.11 4.11 0 0 0 4.104-4.105v-19.41L62.62 16.362a3.163 3.163 0 0 0-1.267-4.28zM8.517 5.196v1.95c0 1.16-.944 2.104-2.105 2.104H4.428l4.088-4.054zm39.965 52.92c0 1.16-.943 2.105-2.104 2.105H5.104A2.107 2.107 0 0 1 3 58.116V11.25h3.411a4.11 4.11 0 0 0 4.105-4.104V3.779h35.861c1.16 0 2.104.944 2.104 2.105v17.965l-9.87 18.171c-.043.08-.122.345-.12.49l.086 7.3a1.001 1.001 0 0 0 1.562.816l5.929-4.028c.01-.007.016-.021.027-.03a.984.984 0 0 0 .29-.319l2.096-3.86v15.727zm-7.97-13.925 3.076 1.674-3.032 2.06-.044-3.734zm20.35-28.784L45.105 44.414l-4.258-2.317L55.94 14.313l.658-1.22a1.158 1.158 0 0 1 1.57-.464l2.228 1.21c.56.305.768 1.009.464 1.568z"/></svg></svg>